<svg width="42" height="43" viewBox="0 0 42 43" fill="none" xmlns="http://www.w3.org/2000/svg">
<path d="M27 5C27 2.51562 24.9844 0.5 22.5 0.5H19.5C17.0156 0.5 15 2.51562 15 5L15 38C15 40.4844 17.0156 42.5 19.5 42.5H22.5C24.9844 42.5 27 40.4844 27 38L27 5ZM42 23C42 20.5156 39.9844 18.5 37.5 18.5H34.5C32.0156 18.5 30 20.5156 30 23V38C30 40.4844 32.0156 42.5 34.5 42.5H37.5C39.9844 42.5 42 40.4844 42 38V23ZM7.5 6.5H4.5C2.01563 6.5 0 8.51562 0 11L0 38C0 40.4844 2.01562 42.5 4.5 42.5H7.5C9.98438 42.5 12 40.4844 12 38L12 11C12 8.51562 9.98438 6.5 7.5 6.5Z" fill="white"/>
</svg>
