<svg width="36" height="48" viewBox="0 0 36 48" fill="none" xmlns="http://www.w3.org/2000/svg">
<path d="M29.0816 22.7473C31.6813 21.4179 33.3357 19.0545 32.9516 15.1254C32.4493 9.74878 28.0337 7.94672 22.1844 7.44459V0H17.6349V7.23778C16.4532 7.23778 15.242 7.26731 14.0308 7.29684V0H9.48131V7.44459C7.80863 7.49512 5.8605 7.47047 0.352875 7.44459V12.2894C3.94481 12.2258 5.82947 11.995 6.26128 14.2982V34.6822C5.98706 36.5095 4.52466 36.2464 1.26862 36.1888L0.352969 41.595C8.64806 41.595 9.48141 41.6245 9.48141 41.6245V48H14.0309V41.7131C15.2716 41.7427 16.4828 41.7427 17.635 41.7427V48H22.1845V41.6245C29.8063 41.2109 34.9014 39.2907 35.5809 32.112C36.1126 26.3514 33.3947 23.7812 29.0816 22.7473ZM14.1195 12.6143C16.6897 12.6143 24.7251 11.8168 24.7251 17.1638C24.7251 22.2746 16.6897 21.6837 14.1195 21.6837V12.6143ZM14.1195 36.2183V26.2332C17.1919 26.2332 26.6002 25.3765 26.6002 31.2259C26.6001 36.8683 17.1919 36.2183 14.1195 36.2183Z" fill="#0D6EFD"/>
</svg>
