<svg width="42" height="49" viewBox="0 0 42 49" fill="none" xmlns="http://www.w3.org/2000/svg">
<path d="M14.25 2.75C14.25 1.50312 13.2469 0.5 12 0.5C10.7531 0.5 9.75 1.50312 9.75 2.75V6.5H6C2.69063 6.5 0 9.19063 0 12.5V14V18.5V42.5C0 45.8094 2.69063 48.5 6 48.5H36C39.3094 48.5 42 45.8094 42 42.5V18.5V14V12.5C42 9.19063 39.3094 6.5 36 6.5H32.25V2.75C32.25 1.50312 31.2469 0.5 30 0.5C28.7531 0.5 27.75 1.50312 27.75 2.75V6.5H14.25V2.75ZM4.5 18.5H37.5V42.5C37.5 43.325 36.825 44 36 44H6C5.175 44 4.5 43.325 4.5 42.5V18.5Z" fill="white"/>
</svg>
