<svg id="visual" viewBox="0 0 960 540" width="960" height="540" xmlns="http://www.w3.org/2000/svg" xmlns:xlink="http://www.w3.org/1999/xlink" version="1.1"><rect x="0" y="0" width="960" height="540" fill="#00765d"></rect><path d="M0 360L17.8 367.3C35.7 374.7 71.3 389.3 106.8 387.7C142.3 386 177.7 368 213.2 368.2C248.7 368.3 284.3 386.7 320 398C355.7 409.3 391.3 413.7 426.8 413C462.3 412.3 497.7 406.7 533.2 408C568.7 409.3 604.3 417.7 640 406.8C675.7 396 711.3 366 746.8 358.8C782.3 351.7 817.7 367.3 853.2 371.7C888.7 376 924.3 369 942.2 365.5L960 362L960 541L942.2 541C924.3 541 888.7 541 853.2 541C817.7 541 782.3 541 746.8 541C711.3 541 675.7 541 640 541C604.3 541 568.7 541 533.2 541C497.7 541 462.3 541 426.8 541C391.3 541 355.7 541 320 541C284.3 541 248.7 541 213.2 541C177.7 541 142.3 541 106.8 541C71.3 541 35.7 541 17.8 541L0 541Z" fill="#fa7268"></path><path d="M0 385L17.8 391C35.7 397 71.3 409 106.8 404C142.3 399 177.7 377 213.2 371C248.7 365 284.3 375 320 381.8C355.7 388.7 391.3 392.3 426.8 400.2C462.3 408 497.7 420 533.2 426.5C568.7 433 604.3 434 640 431.8C675.7 429.7 711.3 424.3 746.8 412.8C782.3 401.3 817.7 383.7 853.2 376.3C888.7 369 924.3 372 942.2 373.5L960 375L960 541L942.2 541C924.3 541 888.7 541 853.2 541C817.7 541 782.3 541 746.8 541C711.3 541 675.7 541 640 541C604.3 541 568.7 541 533.2 541C497.7 541 462.3 541 426.8 541C391.3 541 355.7 541 320 541C284.3 541 248.7 541 213.2 541C177.7 541 142.3 541 106.8 541C71.3 541 35.7 541 17.8 541L0 541Z" fill="#d84d6f"></path><path d="M0 399L17.8 404.3C35.7 409.7 71.3 420.3 106.8 432C142.3 443.7 177.7 456.3 213.2 454.8C248.7 453.3 284.3 437.7 320 432.2C355.7 426.7 391.3 431.3 426.8 432.3C462.3 433.3 497.7 430.7 533.2 426.2C568.7 421.7 604.3 415.3 640 415C675.7 414.7 711.3 420.3 746.8 430.2C782.3 440 817.7 454 853.2 457.8C888.7 461.7 924.3 455.3 942.2 452.2L960 449L960 541L942.2 541C924.3 541 888.7 541 853.2 541C817.7 541 782.3 541 746.8 541C711.3 541 675.7 541 640 541C604.3 541 568.7 541 533.2 541C497.7 541 462.3 541 426.8 541C391.3 541 355.7 541 320 541C284.3 541 248.7 541 213.2 541C177.7 541 142.3 541 106.8 541C71.3 541 35.7 541 17.8 541L0 541Z" fill="#ad3173"></path><path d="M0 434L17.8 435C35.7 436 71.3 438 106.8 437.3C142.3 436.7 177.7 433.3 213.2 441.3C248.7 449.3 284.3 468.7 320 477.3C355.7 486 391.3 484 426.8 480.7C462.3 477.3 497.7 472.7 533.2 468.5C568.7 464.3 604.3 460.7 640 461.7C675.7 462.7 711.3 468.3 746.8 466.5C782.3 464.7 817.7 455.3 853.2 455.8C888.7 456.3 924.3 466.7 942.2 471.8L960 477L960 541L942.2 541C924.3 541 888.7 541 853.2 541C817.7 541 782.3 541 746.8 541C711.3 541 675.7 541 640 541C604.3 541 568.7 541 533.2 541C497.7 541 462.3 541 426.8 541C391.3 541 355.7 541 320 541C284.3 541 248.7 541 213.2 541C177.7 541 142.3 541 106.8 541C71.3 541 35.7 541 17.8 541L0 541Z" fill="#792172"></path><path d="M0 483L17.8 485.2C35.7 487.3 71.3 491.7 106.8 490C142.3 488.3 177.7 480.7 213.2 484.8C248.7 489 284.3 505 320 511.2C355.7 517.3 391.3 513.7 426.8 507C462.3 500.3 497.7 490.7 533.2 490.3C568.7 490 604.3 499 640 503.5C675.7 508 711.3 508 746.8 505.3C782.3 502.7 817.7 497.3 853.2 492.3C888.7 487.3 924.3 482.7 942.2 480.3L960 478L960 541L942.2 541C924.3 541 888.7 541 853.2 541C817.7 541 782.3 541 746.8 541C711.3 541 675.7 541 640 541C604.3 541 568.7 541 533.2 541C497.7 541 462.3 541 426.8 541C391.3 541 355.7 541 320 541C284.3 541 248.7 541 213.2 541C177.7 541 142.3 541 106.8 541C71.3 541 35.7 541 17.8 541L0 541Z" fill="#3a1b6a"></path></svg>