<svg id="visual" viewBox="0 0 960 540" width="960" height="540" xmlns="http://www.w3.org/2000/svg" xmlns:xlink="http://www.w3.org/1999/xlink" version="1.1"><rect x="0" y="0" width="960" height="540" fill="#46aaf0"></rect><path d="M0 365L13.3 368.2C26.7 371.3 53.3 377.7 80 370C106.7 362.3 133.3 340.7 160 333.8C186.7 327 213.3 335 240 338.3C266.7 341.7 293.3 340.3 320 344.7C346.7 349 373.3 359 400 359.2C426.7 359.3 453.3 349.7 480 341.8C506.7 334 533.3 328 560 336C586.7 344 613.3 366 640 366C666.7 366 693.3 344 720 341.2C746.7 338.3 773.3 354.7 800 360C826.7 365.3 853.3 359.7 880 356.3C906.7 353 933.3 352 946.7 351.5L960 351L960 541L946.7 541C933.3 541 906.7 541 880 541C853.3 541 826.7 541 800 541C773.3 541 746.7 541 720 541C693.3 541 666.7 541 640 541C613.3 541 586.7 541 560 541C533.3 541 506.7 541 480 541C453.3 541 426.7 541 400 541C373.3 541 346.7 541 320 541C293.3 541 266.7 541 240 541C213.3 541 186.7 541 160 541C133.3 541 106.7 541 80 541C53.3 541 26.7 541 13.3 541L0 541Z" fill="#46aaf0"></path><path d="M0 427L13.3 423.7C26.7 420.3 53.3 413.7 80 413.3C106.7 413 133.3 419 160 422.2C186.7 425.3 213.3 425.7 240 414.8C266.7 404 293.3 382 320 373C346.7 364 373.3 368 400 379C426.7 390 453.3 408 480 412.5C506.7 417 533.3 408 560 406.8C586.7 405.7 613.3 412.3 640 411.2C666.7 410 693.3 401 720 399.3C746.7 397.7 773.3 403.3 800 400.8C826.7 398.3 853.3 387.7 880 389.3C906.7 391 933.3 405 946.7 412L960 419L960 541L946.7 541C933.3 541 906.7 541 880 541C853.3 541 826.7 541 800 541C773.3 541 746.7 541 720 541C693.3 541 666.7 541 640 541C613.3 541 586.7 541 560 541C533.3 541 506.7 541 480 541C453.3 541 426.7 541 400 541C373.3 541 346.7 541 320 541C293.3 541 266.7 541 240 541C213.3 541 186.7 541 160 541C133.3 541 106.7 541 80 541C53.3 541 26.7 541 13.3 541L0 541Z" fill="#3f9ef6"></path><path d="M0 456L13.3 446.5C26.7 437 53.3 418 80 419.5C106.7 421 133.3 443 160 445.2C186.7 447.3 213.3 429.7 240 429.7C266.7 429.7 293.3 447.3 320 447.3C346.7 447.3 373.3 429.7 400 426.3C426.7 423 453.3 434 480 443C506.7 452 533.3 459 560 462.3C586.7 465.7 613.3 465.3 640 461.5C666.7 457.7 693.3 450.3 720 442.7C746.7 435 773.3 427 800 420.2C826.7 413.3 853.3 407.7 880 407C906.7 406.3 933.3 410.7 946.7 412.8L960 415L960 541L946.7 541C933.3 541 906.7 541 880 541C853.3 541 826.7 541 800 541C773.3 541 746.7 541 720 541C693.3 541 666.7 541 640 541C613.3 541 586.7 541 560 541C533.3 541 506.7 541 480 541C453.3 541 426.7 541 400 541C373.3 541 346.7 541 320 541C293.3 541 266.7 541 240 541C213.3 541 186.7 541 160 541C133.3 541 106.7 541 80 541C53.3 541 26.7 541 13.3 541L0 541Z" fill="#4b90f8"></path><path d="M0 484L13.3 481C26.7 478 53.3 472 80 472.8C106.7 473.7 133.3 481.3 160 484.8C186.7 488.3 213.3 487.7 240 483C266.7 478.3 293.3 469.7 320 461.5C346.7 453.3 373.3 445.7 400 446C426.7 446.3 453.3 454.7 480 459.3C506.7 464 533.3 465 560 465.3C586.7 465.7 613.3 465.3 640 468.7C666.7 472 693.3 479 720 478C746.7 477 773.3 468 800 461.8C826.7 455.7 853.3 452.3 880 452.8C906.7 453.3 933.3 457.7 946.7 459.8L960 462L960 541L946.7 541C933.3 541 906.7 541 880 541C853.3 541 826.7 541 800 541C773.3 541 746.7 541 720 541C693.3 541 666.7 541 640 541C613.3 541 586.7 541 560 541C533.3 541 506.7 541 480 541C453.3 541 426.7 541 400 541C373.3 541 346.7 541 320 541C293.3 541 266.7 541 240 541C213.3 541 186.7 541 160 541C133.3 541 106.7 541 80 541C53.3 541 26.7 541 13.3 541L0 541Z" fill="#6280f6"></path><path d="M0 477L13.3 479C26.7 481 53.3 485 80 486.2C106.7 487.3 133.3 485.7 160 485.2C186.7 484.7 213.3 485.3 240 485.2C266.7 485 293.3 484 320 486.2C346.7 488.3 373.3 493.7 400 492C426.7 490.3 453.3 481.7 480 477.3C506.7 473 533.3 473 560 472.8C586.7 472.7 613.3 472.3 640 475.7C666.7 479 693.3 486 720 492.7C746.7 499.3 773.3 505.7 800 508.5C826.7 511.3 853.3 510.7 880 505.8C906.7 501 933.3 492 946.7 487.5L960 483L960 541L946.7 541C933.3 541 906.7 541 880 541C853.3 541 826.7 541 800 541C773.3 541 746.7 541 720 541C693.3 541 666.7 541 640 541C613.3 541 586.7 541 560 541C533.3 541 506.7 541 480 541C453.3 541 426.7 541 400 541C373.3 541 346.7 541 320 541C293.3 541 266.7 541 240 541C213.3 541 186.7 541 160 541C133.3 541 106.7 541 80 541C53.3 541 26.7 541 13.3 541L0 541Z" fill="#7d6cef"></path></svg>