<svg id="visual" viewBox="0 0 900 600" width="900" height="600" xmlns="http://www.w3.org/2000/svg" xmlns:xlink="http://www.w3.org/1999/xlink" version="1.1"><rect x="0" y="0" width="900" height="600" fill="#81c6ff"></rect><path d="M0 370L21.5 374.7C43 379.3 86 388.7 128.8 398C171.7 407.3 214.3 416.7 257.2 416C300 415.3 343 404.7 385.8 405.3C428.7 406 471.3 418 514.2 416.7C557 415.3 600 400.7 642.8 394.5C685.7 388.3 728.3 390.7 771.2 397.8C814 405 857 417 878.5 423L900 429L900 601L878.5 601C857 601 814 601 771.2 601C728.3 601 685.7 601 642.8 601C600 601 557 601 514.2 601C471.3 601 428.7 601 385.8 601C343 601 300 601 257.2 601C214.3 601 171.7 601 128.8 601C86 601 43 601 21.5 601L0 601Z" fill="#46aaf0"></path><path d="M0 414L21.5 412.2C43 410.3 86 406.7 128.8 416.8C171.7 427 214.3 451 257.2 457C300 463 343 451 385.8 438.3C428.7 425.7 471.3 412.3 514.2 412.8C557 413.3 600 427.7 642.8 436.3C685.7 445 728.3 448 771.2 450.2C814 452.3 857 453.7 878.5 454.3L900 455L900 601L878.5 601C857 601 814 601 771.2 601C728.3 601 685.7 601 642.8 601C600 601 557 601 514.2 601C471.3 601 428.7 601 385.8 601C343 601 300 601 257.2 601C214.3 601 171.7 601 128.8 601C86 601 43 601 21.5 601L0 601Z" fill="#3f9ef6"></path><path d="M0 490L21.5 483.3C43 476.7 86 463.3 128.8 455.7C171.7 448 214.3 446 257.2 450.8C300 455.7 343 467.3 385.8 476.8C428.7 486.3 471.3 493.7 514.2 488C557 482.3 600 463.7 642.8 460.8C685.7 458 728.3 471 771.2 477.2C814 483.3 857 482.7 878.5 482.3L900 482L900 601L878.5 601C857 601 814 601 771.2 601C728.3 601 685.7 601 642.8 601C600 601 557 601 514.2 601C471.3 601 428.7 601 385.8 601C343 601 300 601 257.2 601C214.3 601 171.7 601 128.8 601C86 601 43 601 21.5 601L0 601Z" fill="#4b90f8"></path><path d="M0 543L21.5 541.5C43 540 86 537 128.8 535.8C171.7 534.7 214.3 535.3 257.2 536.2C300 537 343 538 385.8 529.8C428.7 521.7 471.3 504.3 514.2 498.2C557 492 600 497 642.8 501.5C685.7 506 728.3 510 771.2 507.7C814 505.3 857 496.7 878.5 492.3L900 488L900 601L878.5 601C857 601 814 601 771.2 601C728.3 601 685.7 601 642.8 601C600 601 557 601 514.2 601C471.3 601 428.7 601 385.8 601C343 601 300 601 257.2 601C214.3 601 171.7 601 128.8 601C86 601 43 601 21.5 601L0 601Z" fill="#6280f6"></path><path d="M0 540L21.5 545.5C43 551 86 562 128.8 561.8C171.7 561.7 214.3 550.3 257.2 543C300 535.7 343 532.3 385.8 533.2C428.7 534 471.3 539 514.2 543.7C557 548.3 600 552.7 642.8 554.7C685.7 556.7 728.3 556.3 771.2 557.3C814 558.3 857 560.7 878.5 561.8L900 563L900 601L878.5 601C857 601 814 601 771.2 601C728.3 601 685.7 601 642.8 601C600 601 557 601 514.2 601C471.3 601 428.7 601 385.8 601C343 601 300 601 257.2 601C214.3 601 171.7 601 128.8 601C86 601 43 601 21.5 601L0 601Z" fill="#7d6cef"></path></svg>