<svg id="visual" viewBox="0 0 960 540" width="960" height="540" xmlns="http://www.w3.org/2000/svg" xmlns:xlink="http://www.w3.org/1999/xlink" version="1.1"><rect x="0" y="0" width="960" height="540" fill="#7d6cef"></rect><path d="M0 369L13.3 374.5C26.7 380 53.3 391 80 385.2C106.7 379.3 133.3 356.7 160 351.7C186.7 346.7 213.3 359.3 240 368.8C266.7 378.3 293.3 384.7 320 387C346.7 389.3 373.3 387.7 400 381C426.7 374.3 453.3 362.7 480 359C506.7 355.3 533.3 359.7 560 367.8C586.7 376 613.3 388 640 395.8C666.7 403.7 693.3 407.3 720 395.7C746.7 384 773.3 357 800 348.3C826.7 339.7 853.3 349.3 880 347.5C906.7 345.7 933.3 332.3 946.7 325.7L960 319L960 541L946.7 541C933.3 541 906.7 541 880 541C853.3 541 826.7 541 800 541C773.3 541 746.7 541 720 541C693.3 541 666.7 541 640 541C613.3 541 586.7 541 560 541C533.3 541 506.7 541 480 541C453.3 541 426.7 541 400 541C373.3 541 346.7 541 320 541C293.3 541 266.7 541 240 541C213.3 541 186.7 541 160 541C133.3 541 106.7 541 80 541C53.3 541 26.7 541 13.3 541L0 541Z" fill="#46aaf0"></path><path d="M0 440L13.3 440C26.7 440 53.3 440 80 437C106.7 434 133.3 428 160 423C186.7 418 213.3 414 240 407C266.7 400 293.3 390 320 388C346.7 386 373.3 392 400 396.8C426.7 401.7 453.3 405.3 480 411C506.7 416.7 533.3 424.3 560 428.5C586.7 432.7 613.3 433.3 640 432.2C666.7 431 693.3 428 720 416.8C746.7 405.7 773.3 386.3 800 385.7C826.7 385 853.3 403 880 406.5C906.7 410 933.3 399 946.7 393.5L960 388L960 541L946.7 541C933.3 541 906.7 541 880 541C853.3 541 826.7 541 800 541C773.3 541 746.7 541 720 541C693.3 541 666.7 541 640 541C613.3 541 586.7 541 560 541C533.3 541 506.7 541 480 541C453.3 541 426.7 541 400 541C373.3 541 346.7 541 320 541C293.3 541 266.7 541 240 541C213.3 541 186.7 541 160 541C133.3 541 106.7 541 80 541C53.3 541 26.7 541 13.3 541L0 541Z" fill="#3f9ef6"></path><path d="M0 449L13.3 450.8C26.7 452.7 53.3 456.3 80 449.5C106.7 442.7 133.3 425.3 160 423.5C186.7 421.7 213.3 435.3 240 444.3C266.7 453.3 293.3 457.7 320 458.3C346.7 459 373.3 456 400 451.5C426.7 447 453.3 441 480 440.2C506.7 439.3 533.3 443.7 560 441.2C586.7 438.7 613.3 429.3 640 421.3C666.7 413.3 693.3 406.7 720 402.5C746.7 398.3 773.3 396.7 800 403.2C826.7 409.7 853.3 424.3 880 425C906.7 425.7 933.3 412.3 946.7 405.7L960 399L960 541L946.7 541C933.3 541 906.7 541 880 541C853.3 541 826.7 541 800 541C773.3 541 746.7 541 720 541C693.3 541 666.7 541 640 541C613.3 541 586.7 541 560 541C533.3 541 506.7 541 480 541C453.3 541 426.7 541 400 541C373.3 541 346.7 541 320 541C293.3 541 266.7 541 240 541C213.3 541 186.7 541 160 541C133.3 541 106.7 541 80 541C53.3 541 26.7 541 13.3 541L0 541Z" fill="#4b90f8"></path><path d="M0 463L13.3 467.5C26.7 472 53.3 481 80 484.7C106.7 488.3 133.3 486.7 160 480.2C186.7 473.7 213.3 462.3 240 458.8C266.7 455.3 293.3 459.7 320 459.5C346.7 459.3 373.3 454.7 400 457.8C426.7 461 453.3 472 480 473.3C506.7 474.7 533.3 466.3 560 459.2C586.7 452 613.3 446 640 449.2C666.7 452.3 693.3 464.7 720 468.3C746.7 472 773.3 467 800 463.5C826.7 460 853.3 458 880 461.3C906.7 464.7 933.3 473.3 946.7 477.7L960 482L960 541L946.7 541C933.3 541 906.7 541 880 541C853.3 541 826.7 541 800 541C773.3 541 746.7 541 720 541C693.3 541 666.7 541 640 541C613.3 541 586.7 541 560 541C533.3 541 506.7 541 480 541C453.3 541 426.7 541 400 541C373.3 541 346.7 541 320 541C293.3 541 266.7 541 240 541C213.3 541 186.7 541 160 541C133.3 541 106.7 541 80 541C53.3 541 26.7 541 13.3 541L0 541Z" fill="#6280f6"></path><path d="M0 479L13.3 478.8C26.7 478.7 53.3 478.3 80 478.2C106.7 478 133.3 478 160 480C186.7 482 213.3 486 240 490.5C266.7 495 293.3 500 320 504.2C346.7 508.3 373.3 511.7 400 507.8C426.7 504 453.3 493 480 491.2C506.7 489.3 533.3 496.7 560 498.8C586.7 501 613.3 498 640 497.7C666.7 497.3 693.3 499.7 720 498.8C746.7 498 773.3 494 800 492.5C826.7 491 853.3 492 880 492.2C906.7 492.3 933.3 491.7 946.7 491.3L960 491L960 541L946.7 541C933.3 541 906.7 541 880 541C853.3 541 826.7 541 800 541C773.3 541 746.7 541 720 541C693.3 541 666.7 541 640 541C613.3 541 586.7 541 560 541C533.3 541 506.7 541 480 541C453.3 541 426.7 541 400 541C373.3 541 346.7 541 320 541C293.3 541 266.7 541 240 541C213.3 541 186.7 541 160 541C133.3 541 106.7 541 80 541C53.3 541 26.7 541 13.3 541L0 541Z" fill="#7d6cef"></path></svg>