<svg width="60" height="48" viewBox="0 0 60 48" fill="none" xmlns="http://www.w3.org/2000/svg">
<path d="M13.5 15C15.4891 15 17.3968 14.2098 18.8033 12.8033C20.2098 11.3968 21 9.48912 21 7.5C21 5.51088 20.2098 3.60322 18.8033 2.1967C17.3968 0.790176 15.4891 0 13.5 0C11.5109 0 9.60322 0.790176 8.1967 2.1967C6.79018 3.60322 6 5.51088 6 7.5C6 9.48912 6.79018 11.3968 8.1967 12.8033C9.60322 14.2098 11.5109 15 13.5 15ZM48 15C49.9891 15 51.8968 14.2098 53.3033 12.8033C54.7098 11.3968 55.5 9.48912 55.5 7.5C55.5 5.51088 54.7098 3.60322 53.3033 2.1967C51.8968 0.790176 49.9891 0 48 0C46.0109 0 44.1032 0.790176 42.6967 2.1967C41.2902 3.60322 40.5 5.51088 40.5 7.5C40.5 9.48912 41.2902 11.3968 42.6967 12.8033C44.1032 14.2098 46.0109 15 48 15ZM0 28.0031C0 29.1 0.9 30 1.99687 30H22.0031C22.0219 30 22.0406 30 22.0687 30C19.575 27.7969 18.0094 24.5813 18.0094 21C18.0094 20.2875 18.075 19.5937 18.1875 18.9094C16.9125 18.3187 15.4969 18 14.0062 18H10.0031C4.48125 18 0 22.4813 0 28.0031ZM37.9969 30H58.0031C59.1094 30 60 29.1 60 28.0031C60 22.4813 55.5187 18 49.9969 18H46.0031C44.5125 18 43.0969 18.3281 41.8219 18.9094C41.9438 19.5844 42 20.2875 42 21C42 24.5813 40.425 27.7969 37.9406 30C37.9594 30 37.9781 30 38.0062 30H37.9969ZM30 16.5C30.5909 16.5 31.1761 16.6164 31.7221 16.8425C32.268 17.0687 32.7641 17.4002 33.182 17.818C33.5998 18.2359 33.9313 18.732 34.1575 19.2779C34.3836 19.8239 34.5 20.4091 34.5 21C34.5 21.5909 34.3836 22.1761 34.1575 22.7221C33.9313 23.268 33.5998 23.7641 33.182 24.182C32.7641 24.5998 32.268 24.9313 31.7221 25.1575C31.1761 25.3836 30.5909 25.5 30 25.5C29.4091 25.5 28.8239 25.3836 28.2779 25.1575C27.732 24.9313 27.2359 24.5998 26.818 24.182C26.4002 23.7641 26.0687 23.268 25.8425 22.7221C25.6164 22.1761 25.5 21.5909 25.5 21C25.5 20.4091 25.6164 19.8239 25.8425 19.2779C26.0687 18.732 26.4002 18.2359 26.818 17.818C27.2359 17.4002 27.732 17.0687 28.2779 16.8425C28.8239 16.6164 29.4091 16.5 30 16.5ZM30 30C31.1819 30 32.3522 29.7672 33.4442 29.3149C34.5361 28.8626 35.5282 28.1997 36.364 27.364C37.1997 26.5282 37.8626 25.5361 38.3149 24.4442C38.7672 23.3522 39 22.1819 39 21C39 19.8181 38.7672 18.6478 38.3149 17.5558C37.8626 16.4639 37.1997 15.4718 36.364 14.636C35.5282 13.8003 34.5361 13.1374 33.4442 12.6851C32.3522 12.2328 31.1819 12 30 12C28.8181 12 27.6478 12.2328 26.5558 12.6851C25.4639 13.1374 24.4718 13.8003 23.636 14.636C22.8003 15.4718 22.1374 16.4639 21.6851 17.5558C21.2328 18.6478 21 19.8181 21 21C21 22.1819 21.2328 23.3522 21.6851 24.4442C22.1374 25.5361 22.8003 26.5282 23.636 27.364C24.4718 28.1997 25.4639 28.8626 26.5558 29.3149C27.6478 29.7672 28.8181 30 30 30ZM24.4969 37.5H35.5031C39.2344 37.5 42.3656 40.05 43.2469 43.5H16.7531C17.6437 40.05 20.775 37.5 24.4969 37.5ZM24.4969 33C17.5969 33 12 38.5969 12 45.4969C12 46.875 13.1156 48 14.5031 48H45.4969C46.875 48 48 46.8844 48 45.4969C48 38.5969 42.4031 33 35.5031 33H24.4969Z" fill="#0D6EFD"/>
</svg>
